<svg height="448pt" viewBox="0 0 448 448" width="448pt" xmlns="http://www.w3.org/2000/svg"><path d="m344 240c-57.4375 0-104 46.5625-104 104s46.5625 104 104 104 104-46.5625 104-104c-.066406-57.410156-46.589844-103.933594-104-104zm80 112h-72v64h-16v-64h-72v-16h72v-72h16v72h72zm0 0"/><path d="m264 0h176c4.417969 0 8 3.582031 8 8v176c0 4.417969-3.582031 8-8 8h-176c-4.417969 0-8-3.582031-8-8v-176c0-4.417969 3.582031-8 8-8zm0 0"/><path d="m8 0h176c4.417969 0 8 3.582031 8 8v176c0 4.417969-3.582031 8-8 8h-176c-4.417969 0-8-3.582031-8-8v-176c0-4.417969 3.582031-8 8-8zm0 0"/><path d="m8 256h176c4.417969 0 8 3.582031 8 8v176c0 4.417969-3.582031 8-8 8h-176c-4.417969 0-8-3.582031-8-8v-176c0-4.417969 3.582031-8 8-8zm0 0"/></svg>