<svg xmlns="http://www.w3.org/2000/svg" height="512pt" version="1.1" viewBox="0 0 512 512" width="512pt">
<g id="surface1">
<path d="M 290.289062 125.859375 L 290.289062 221.710938 L 386.140625 221.710938 L 386.140625 110.859375 L 416.140625 110.859375 L 416.140625 221.710938 L 512 221.710938 L 512 0 L 290.289062 0 L 290.289062 95.859375 L 221.710938 95.859375 L 221.710938 125.859375 Z M 290.289062 125.859375 " style=" stroke:none;fill-rule:nonzero;fill:rgb(0%,0%,0%);fill-opacity:1;" />
<path d="M 386.140625 221.710938 L 386.140625 290.289062 L 290.289062 290.289062 L 290.289062 386.140625 L 401.140625 386.140625 L 401.140625 416.140625 L 290.289062 416.140625 L 290.289062 512 L 512 512 L 512 290.289062 L 416.140625 290.289062 L 416.140625 221.710938 Z M 386.140625 221.710938 " style=" stroke:none;fill-rule:nonzero;fill:rgb(0%,0%,0%);fill-opacity:1;" />
<path d="M 221.710938 386.140625 L 221.710938 290.289062 L 125.859375 290.289062 L 125.859375 401.140625 L 95.859375 401.140625 L 95.859375 290.289062 L 0 290.289062 L 0 512 L 221.710938 512 L 221.710938 416.140625 L 290.289062 416.140625 L 290.289062 386.140625 Z M 221.710938 386.140625 " style=" stroke:none;fill-rule:nonzero;fill:rgb(0%,0%,0%);fill-opacity:1;" />
<path d="M 125.859375 221.710938 L 221.710938 221.710938 L 221.710938 125.859375 L 110.859375 125.859375 L 110.859375 95.859375 L 221.710938 95.859375 L 221.710938 0 L 0 0 L 0 221.710938 L 95.859375 221.710938 L 95.859375 290.289062 L 125.859375 290.289062 Z M 125.859375 221.710938 " style=" stroke:none;fill-rule:nonzero;fill:rgb(0%,0%,0%);fill-opacity:1;" />
</g>
</svg>